<?xml version="1.0" standalone="no"?><!DOCTYPE svg PUBLIC "-//W3C//DTD SVG 1.1//EN" "http://www.w3.org/Graphics/SVG/1.1/DTD/svg11.dtd"><svg t="1617095405802" class="icon" viewBox="0 0 1084 1024" version="1.1" xmlns="http://www.w3.org/2000/svg" p-id="3025" xmlns:xlink="http://www.w3.org/1999/xlink" width="211.71875" height="200"><defs><style type="text/css"></style></defs><path d="M303.19392 362.585904a330.570913 330.570913 0 0 1 278.316927 112.971971 45.175988 45.175988 0 1 1-68.215982 59.239984 240.940936 240.940936 0 1 0-32.496992 346.865909 329.787913 329.787913 0 0 1-59.150984-188.957951c0-27.045993 3.252999-53.699986 9.637997-79.509979a45.175988 45.175988 0 0 1 87.701977 21.623995 240.940936 240.940936 0 1 0 474.894875 57.885984 241.151936 241.151936 0 0 0-150.52796-223.442941A331.504913 331.504913 0 0 1 647.679829 645.38983a45.175988 45.175988 0 0 1-28.762992-85.624978A241.061936 241.061936 0 0 0 783.059794 331.293913a240.940936 240.940936 0 1 0-479.864874 31.291991z m-88.424977 19.877995a333.492912 333.492912 0 0 1-3.945999-51.169986C210.822944 148.328961 359.152905 0 542.116857 0s331.294913 148.329961 331.294913 331.293913c0 17.347995-1.356 34.454991-3.945999 51.199986a331.474913 331.474913 0 0 1 214.768943 310.211918c0 182.963952-148.329961 331.293913-331.293913 331.293913-80.112979 0-153.53996-28.430993-210.823944-75.71598A330.209913 330.209913 0 0 1 331.293913 1023.99973C148.328961 1023.99973 0 875.669769 0 692.705817 0 550.759855 89.298976 429.657887 214.738943 382.493899z" p-id="3026"></path></svg>