<?xml version="1.0" standalone="no"?><!DOCTYPE svg PUBLIC "-//W3C//DTD SVG 1.1//EN" "http://www.w3.org/Graphics/SVG/1.1/DTD/svg11.dtd"><svg t="1617260529592" class="icon" viewBox="0 0 1024 1024" version="1.1" xmlns="http://www.w3.org/2000/svg" p-id="7396" xmlns:xlink="http://www.w3.org/1999/xlink" width="200" height="200"><defs><style type="text/css"></style></defs><path d="M511.999488 64.303538c-247.25636 0-447.696462 200.429869-447.696462 447.696462 0 247.255337 200.440102 447.696462 447.696462 447.696462 247.245104 0 447.696462-200.441125 447.696462-447.696462C959.69595 264.733407 759.244592 64.303538 511.999488 64.303538zM700.110797 872.468818c0 0-17.860786-11.559267-10.506285-59.904345 0 0-49.38885-15.763009-90.37738-48.344055 0 0-30.474059-44.141336 1.052982-78.819137 0 0-19.978007-50.462299-114.550942-67.26908 0 0-59.904345-6.300496-79.882352-5.247514 0 0-35.721573-39.693024-40.989553-82.375126 0 0-33.624818-33.218566-89.324398-48.992831 0 0-76.711126-26.25906-28.367071-128.206964 0 0 58.850339-107.195418-5.257747-114.549919 0 0-31.537274 17.860786-43.086307 17.860786 0 0-16.645099-4.66116-13.666254-11.559267 0 0 38.892799-104.045681 128.217197-71.464635 0 0 37.82856 16.818037 44.140313 46.238091 0 0 20.767999 18.914792 88.675622-27.322275 0 0 72.101131 7.355525 20.61655 44.140313-51.495838 36.785811-63.055105 43.077098-2.096754 60.957327 0 0 74.614371 23.109324 57.80759-65.162092 0 0 63.055105-58.851363 225.940892 143.981229 0 0 22.794146 7.546883-124.013455 17.859763-119.80869 8.40953-37.82856 129.260969 18.925025 155.540496 0 0-17.871019 34.678824-78.828346 0 0 0-31.529087-23.118534-25.217335-53.592592 0 0-45.436842-37.82856-93.133144 1.054005 0 0-47.696302 91.421152 72.111364 55.689347 0 0 17.872043 139.76623 199.681832 36.785811 0 0 17.871019-23.088858 166.04678 37.848003 0 0 13.645788 63.035662-37.839817 139.757021C846.18878 767.371178 784.187681 862.996073 700.110797 872.468818z" p-id="7397"></path></svg>