<?xml version="1.0" standalone="no"?><!DOCTYPE svg PUBLIC "-//W3C//DTD SVG 1.1//EN" "http://www.w3.org/Graphics/SVG/1.1/DTD/svg11.dtd"><svg t="1597310522788" class="icon" viewBox="0 0 1024 1024" version="1.1" xmlns="http://www.w3.org/2000/svg" p-id="7103" xmlns:xlink="http://www.w3.org/1999/xlink" width="200" height="200"><defs><style type="text/css"></style></defs><path d="M727.005379 259.218286a40.17981 40.17981 0 1 1-56.807619 56.856381L575.550903 221.379048a40.17981 40.17981 0 1 1 56.856381-56.856381l94.598095 94.598095z m-28.184381 239.128381a40.17981 40.17981 0 1 1-56.856381 56.856381L441.84576 355.08419a40.17981 40.17981 0 1 1 56.856381-56.85638l200.118857 200.118857z m-239.128381 28.233143a40.17981 40.17981 0 1 1-56.856381 56.85638L308.140617 488.789333a40.17981 40.17981 0 0 1 56.807619-56.856381l94.695619 94.598096z m-28.281905 239.177142a40.17981 40.17981 0 1 1-56.807619 56.856381l-200.118857-200.167619A40.131048 40.131048 0 1 1 231.291855 565.638095l200.167619 200.118857zM612.07357 28.574476L39.462522 601.039238a51.395048 51.395048 0 0 0 0 72.655238l300.032 300.032a51.346286 51.346286 0 0 0 72.606476 0L984.663284 401.212952a51.395048 51.395048 0 0 0 0-72.655238L684.582522 28.574476a51.346286 51.346286 0 0 0-72.655238 0z" p-id="7104"></path></svg>