<?xml version="1.0" standalone="no"?><!DOCTYPE svg PUBLIC "-//W3C//DTD SVG 1.1//EN" "http://www.w3.org/Graphics/SVG/1.1/DTD/svg11.dtd"><svg t="1597310534979" class="icon" viewBox="0 0 1024 1024" version="1.1" xmlns="http://www.w3.org/2000/svg" p-id="7233" xmlns:xlink="http://www.w3.org/1999/xlink" width="200" height="200"><defs><style type="text/css"></style></defs><path d="M873.910857 330.556952L351.768381 848.847238H262.144v-37.351619L836.266667 241.566476h37.546666v88.990476z m-50.078476 438.369524a30.329905 30.329905 0 0 0-30.427429 30.232381v49.737143h-132.388571l212.943238-211.480381v131.510857h-50.127238z m50.078476-217.088l-291.84 289.743238a30.524952 30.524952 0 0 0-5.461333 7.265524H437.979429l435.931428-432.761905v135.753143zM181.735619 678.278095l520.289524-516.583619h91.331047v37.059048L218.843429 768.975238h-37.351619v-90.697143h0.243809z m50.078476-436.662857a30.329905 30.329905 0 0 0 30.378667-30.232381v-49.737143h128.975238L181.638095 369.761524V241.566476h50.176zM181.735619 454.217143a31.98781 31.98781 0 0 0 5.12-4.096l290.474667-288.475429h138.581333l-434.176 431.055238v-138.483809z m803.108571-212.601905a30.281143 30.281143 0 0 0 30.524953-30.232381V51.297524A30.281143 30.281143 0 0 0 984.990476 21.211429h-161.158095a30.329905 30.329905 0 0 0-30.427429 30.134857v49.737143h-98.889142a33.109333 33.109333 0 0 0-9.313524 0H262.144v-49.737143A30.329905 30.329905 0 0 0 231.619048 21.211429H70.558476a30.329905 30.329905 0 0 0-30.427428 30.134857v159.939047c0.097524 16.676571 13.750857 30.232381 30.427428 30.086096h50.127238v527.457523H70.558476a30.329905 30.329905 0 0 0-30.427428 30.134858v159.939047c0.097524 16.676571 13.750857 30.232381 30.427428 30.134857H231.619048a30.232381 30.232381 0 0 0 30.427428-30.232381v-49.688381h531.212191v49.737143a30.232381 30.232381 0 0 0 30.427428 30.183619h161.109334a30.232381 30.232381 0 0 0 30.427428-30.232381V799.207619a30.281143 30.281143 0 0 0-30.427428-30.232381H934.765714V344.502857a16.188952 16.188952 0 0 0 0-3.072V241.566476h50.176-0.048762zM540.476952 16.14019L536.380952 13.750857c8.387048 11.556571 8.387048 6.192762 3.998477 2.535619V16.188952z" p-id="7234"></path></svg>