<?xml version="1.0" standalone="no"?><!DOCTYPE svg PUBLIC "-//W3C//DTD SVG 1.1//EN" "http://www.w3.org/Graphics/SVG/1.1/DTD/svg11.dtd"><svg t="1597807554227" class="icon" viewBox="0 0 1024 1024" version="1.1" xmlns="http://www.w3.org/2000/svg" p-id="31557" xmlns:xlink="http://www.w3.org/1999/xlink" width="200" height="200"><defs><style type="text/css"></style></defs><path d="M870.4 819.2V204.8H102.4v614.4h768z m51.2 0h76.8a25.6 25.6 0 1 1 0 51.2H921.6v128a25.6 25.6 0 1 1-51.2 0V870.4H76.8a25.6 25.6 0 0 1-25.6-25.6V204.8H25.6a25.6 25.6 0 0 1 0-51.2H51.2V25.6a25.6 25.6 0 0 1 51.2 0V153.6h793.6a25.4976 25.4976 0 0 1 25.6 25.6V819.2zM254.976 356.9664a67.9424 67.9424 0 0 1 67.9936-67.9936A67.9936 67.9936 0 1 1 254.976 356.9664z m543.0272 366.592a17.2032 17.2032 0 0 1-2.304 17.1008 18.1248 18.1248 0 0 1-15.36 7.8336H205.4144a18.4832 18.4832 0 0 1-16.4864-9.472 17.7152 17.7152 0 0 1 0.6144-18.688l116.1728-177.3056a18.7904 18.7904 0 0 1 24.064-6.6048l195.584 95.0272c8.5504 4.2496 18.944 1.3824 24.1664-6.656l114.176-174.3872a18.688 18.688 0 0 1 17.7664-8.3456c7.0656 0.512 13.1584 5.12 15.616 11.776l100.9664 269.7216z" p-id="31558"></path></svg>