<?xml version="1.0" standalone="no"?><!DOCTYPE svg PUBLIC "-//W3C//DTD SVG 1.1//EN" "http://www.w3.org/Graphics/SVG/1.1/DTD/svg11.dtd"><svg t="1617260581679" class="icon" viewBox="0 0 1024 1024" version="1.1" xmlns="http://www.w3.org/2000/svg" p-id="8648" xmlns:xlink="http://www.w3.org/1999/xlink" width="200" height="200"><defs><style type="text/css"></style></defs><path d="M494.08 38.4C232.93696 38.4 20.48 250.85696 20.48 512s212.45696 473.6 473.6 473.6 473.6-212.45696 473.6-473.6S755.22304 38.4 494.08 38.4z m0 855.23968c-210.43456 0-381.63968-171.20256-381.63968-381.63968S283.64544 130.36032 494.08 130.36032 875.71968 301.56544 875.71968 512 704.51456 893.63968 494.08 893.63968z" p-id="8649"></path><path d="M640 460.8H345.6c-28.27776 0-51.2 22.92224-51.2 51.2s22.92224 51.2 51.2 51.2h294.4c28.27776 0 51.2-22.92224 51.2-51.2s-22.92224-51.2-51.2-51.2z" p-id="8650"></path></svg>