<?xml version="1.0" standalone="no"?><!DOCTYPE svg PUBLIC "-//W3C//DTD SVG 1.1//EN" "http://www.w3.org/Graphics/SVG/1.1/DTD/svg11.dtd"><svg t="1617260605043" class="icon" viewBox="0 0 1024 1024" version="1.1" xmlns="http://www.w3.org/2000/svg" p-id="10095" xmlns:xlink="http://www.w3.org/1999/xlink" width="200" height="200"><defs><style type="text/css"></style></defs><path d="M490.382222 895.374222c221.980444 0 403.171556-181.134222 404.992-404.650666A404.821333 404.821333 0 0 0 490.382222 85.504 404.764444 404.764444 0 0 0 85.504 490.382222a404.764444 404.764444 0 0 0 404.935111 404.935111zM462.449778 447.146667H277.390222a42.723556 42.723556 0 0 0 0 85.504h185.002667v185.002666a42.723556 42.723556 0 1 0 85.447111 0V532.707556h185.002667a42.723556 42.723556 0 0 0 0-85.504H547.84V262.257778a42.723556 42.723556 0 1 0-85.447111 0V447.146667z m28.046222 533.617777A490.211556 490.211556 0 0 1 0 490.439111 490.211556 490.211556 0 0 1 490.382222 0c271.075556 0 490.439111 219.477333 490.439111 491.064889-2.104889 270.677333-221.354667 489.813333-490.382222 489.813333z" p-id="10096"></path></svg>